<mxfile host="app.diagrams.net" agent="Mozilla/5.0 (Windows NT 10.0; Win64; x64; rv:133.0) Gecko/20100101 Firefox/133.0" version="25.0.3">
  <diagram name="Pagina-1" id="CbVyOIbmug2-EJinxHhE">
    <mxGraphModel dx="1445" dy="726" grid="1" gridSize="10" guides="1" tooltips="1" connect="1" arrows="1" fold="1" page="1" pageScale="1" pageWidth="827" pageHeight="1169" math="0" shadow="0">
      <root>
        <mxCell id="0" />
        <mxCell id="1" parent="0" />
        <mxCell id="QjCv2UUFamEn0yIEqGLQ-1" value="User" style="shape=umlActor;verticalLabelPosition=bottom;verticalAlign=top;html=1;" vertex="1" parent="1">
          <mxGeometry x="80" y="60" width="30" height="60" as="geometry" />
        </mxCell>
        <mxCell id="QjCv2UUFamEn0yIEqGLQ-2" value="Tecnico" style="shape=umlActor;verticalLabelPosition=bottom;verticalAlign=top;html=1;" vertex="1" parent="1">
          <mxGeometry x="80" y="180" width="30" height="60" as="geometry" />
        </mxCell>
        <mxCell id="QjCv2UUFamEn0yIEqGLQ-3" value="Admin" style="shape=umlActor;verticalLabelPosition=bottom;verticalAlign=top;html=1;" vertex="1" parent="1">
          <mxGeometry x="80" y="300" width="30" height="60" as="geometry" />
        </mxCell>
        <mxCell id="QjCv2UUFamEn0yIEqGLQ-4" value="Operaio" style="shape=umlActor;verticalLabelPosition=bottom;verticalAlign=top;html=1;" vertex="1" parent="1">
          <mxGeometry x="80" y="410" width="30" height="60" as="geometry" />
        </mxCell>
        <mxCell id="QjCv2UUFamEn0yIEqGLQ-22" style="edgeStyle=orthogonalEdgeStyle;rounded=0;orthogonalLoop=1;jettySize=auto;html=1;exitX=1;exitY=1;exitDx=0;exitDy=0;" edge="1" parent="1" source="QjCv2UUFamEn0yIEqGLQ-5">
          <mxGeometry relative="1" as="geometry">
            <mxPoint x="419" y="400" as="targetPoint" />
          </mxGeometry>
        </mxCell>
        <mxCell id="QjCv2UUFamEn0yIEqGLQ-24" value="includes" style="edgeLabel;html=1;align=center;verticalAlign=middle;resizable=0;points=[];" vertex="1" connectable="0" parent="QjCv2UUFamEn0yIEqGLQ-22">
          <mxGeometry x="-0.0157" y="-2" relative="1" as="geometry">
            <mxPoint as="offset" />
          </mxGeometry>
        </mxCell>
        <mxCell id="QjCv2UUFamEn0yIEqGLQ-5" value="Archivio Ticket Conclusi" style="ellipse;whiteSpace=wrap;html=1;" vertex="1" parent="1">
          <mxGeometry x="300" y="230" width="140" height="70" as="geometry" />
        </mxCell>
        <mxCell id="QjCv2UUFamEn0yIEqGLQ-7" style="edgeStyle=orthogonalEdgeStyle;rounded=0;orthogonalLoop=1;jettySize=auto;html=1;entryX=1;entryY=0.5;entryDx=0;entryDy=0;" edge="1" parent="1" source="QjCv2UUFamEn0yIEqGLQ-6" target="QjCv2UUFamEn0yIEqGLQ-5">
          <mxGeometry relative="1" as="geometry" />
        </mxCell>
        <mxCell id="QjCv2UUFamEn0yIEqGLQ-8" value="extends" style="edgeLabel;html=1;align=center;verticalAlign=middle;resizable=0;points=[];" vertex="1" connectable="0" parent="QjCv2UUFamEn0yIEqGLQ-7">
          <mxGeometry x="0.05" y="2" relative="1" as="geometry">
            <mxPoint y="-2" as="offset" />
          </mxGeometry>
        </mxCell>
        <mxCell id="QjCv2UUFamEn0yIEqGLQ-6" value="Filtro per Ticket" style="ellipse;whiteSpace=wrap;html=1;" vertex="1" parent="1">
          <mxGeometry x="550" y="230" width="140" height="70" as="geometry" />
        </mxCell>
        <mxCell id="QjCv2UUFamEn0yIEqGLQ-18" value="" style="endArrow=none;html=1;rounded=0;entryX=0.5;entryY=0;entryDx=0;entryDy=0;" edge="1" parent="1" target="QjCv2UUFamEn0yIEqGLQ-5">
          <mxGeometry width="50" height="50" relative="1" as="geometry">
            <mxPoint x="130" y="80" as="sourcePoint" />
            <mxPoint x="210" y="90" as="targetPoint" />
          </mxGeometry>
        </mxCell>
        <mxCell id="QjCv2UUFamEn0yIEqGLQ-19" value="" style="endArrow=none;html=1;rounded=0;entryX=0;entryY=0;entryDx=0;entryDy=0;" edge="1" parent="1" target="QjCv2UUFamEn0yIEqGLQ-5">
          <mxGeometry width="50" height="50" relative="1" as="geometry">
            <mxPoint x="120" y="210" as="sourcePoint" />
            <mxPoint x="220" y="180" as="targetPoint" />
          </mxGeometry>
        </mxCell>
        <mxCell id="QjCv2UUFamEn0yIEqGLQ-20" value="" style="endArrow=none;html=1;rounded=0;entryX=0;entryY=1;entryDx=0;entryDy=0;" edge="1" parent="1" target="QjCv2UUFamEn0yIEqGLQ-5">
          <mxGeometry width="50" height="50" relative="1" as="geometry">
            <mxPoint x="120" y="330" as="sourcePoint" />
            <mxPoint x="230" y="320" as="targetPoint" />
          </mxGeometry>
        </mxCell>
        <mxCell id="QjCv2UUFamEn0yIEqGLQ-21" value="" style="endArrow=none;html=1;rounded=0;entryX=0.5;entryY=1;entryDx=0;entryDy=0;" edge="1" parent="1" target="QjCv2UUFamEn0yIEqGLQ-5">
          <mxGeometry width="50" height="50" relative="1" as="geometry">
            <mxPoint x="120" y="440" as="sourcePoint" />
            <mxPoint x="210" y="420" as="targetPoint" />
          </mxGeometry>
        </mxCell>
        <mxCell id="QjCv2UUFamEn0yIEqGLQ-23" value="Filtro per Data" style="ellipse;whiteSpace=wrap;html=1;" vertex="1" parent="1">
          <mxGeometry x="350" y="400" width="140" height="70" as="geometry" />
        </mxCell>
      </root>
    </mxGraphModel>
  </diagram>
</mxfile>
